15_ID_stride4.mot
nRows=11
nColumns=38

name 15_ID_stride4.mot
datacolumns 38
datarows 11
range 2.2350000000 2.2850000000
endheader
time	pelvis_tilt_moment	pelvis_list_moment	pelvis_rotation_moment	pelvis_tx_force	pelvis_ty_force	pelvis_tz_force	hip_flexion_r_moment	hip_adduction_r_moment	hip_rotation_r_moment	knee_angle_r_moment	ankle_angle_r_moment	subtalar_angle_r_moment	mtp_angle_r_moment	hip_flexion_l_moment	hip_adduction_l_moment	hip_rotation_l_moment	knee_angle_l_moment	ankle_angle_l_moment	subtalar_angle_l_moment	mtp_angle_l_moment	lumbar_extension_moment	lumbar_bending_moment	lumbar_rotation_moment	arm_flex_r_moment	arm_add_r_moment	arm_rot_r_moment	elbow_flex_r_moment	pro_sup_r_moment	wrist_flex_r_moment	wrist_dev_r_moment	arm_flex_l_moment	arm_add_l_moment	arm_rot_l_moment	elbow_flex_l_moment	pro_sup_l_moment	wrist_flex_l_moment	wrist_dev_l_moment
        2.2350000000	       12.6217599556	      -33.6745704763	        2.9182223715	       11.9876161459	      -27.8935014537	       19.8716382656	      -21.7661783320	      -10.2467429126	        1.7828497545	       -2.4691568316	        1.7797906674	       -0.4002616714	        0.0802395097	       -1.6841811845	       -9.5838513899	       -3.2963534140	      -24.8667018285	      -90.2935942369	       17.2731480349	       -0.0624217202	       -2.9140772664	       -0.2596388466	       20.3020158879	        3.2975367261	        1.9906666407	        1.8042714941	        1.7292186385	        0.0260234271	        0.2345068290	       -0.0819799567	       -1.2126981458	       -0.4813999741	       -1.3212154882	        1.3355326137	       -0.0802930960	       -0.1432672536	       -0.1377540438	
        2.2400000000	       10.4104982105	      -15.9420697825	        1.5798761329	       15.3246382417	      -44.0835208970	       19.6567696723	      -22.2882416032	      -10.8232710132	        1.3101144319	       -2.4406582388	        1.8336021223	       -0.3990074896	        0.0835903743	       11.8343142886	       -7.2635977377	       -1.9984186322	      -19.6379216850	      -73.8171858490	       14.4757472076	       -0.0435382554	       -3.2244128092	       -2.3349341654	       18.1439217847	        2.6676566414	        1.4520031310	        1.4775585709	        1.2163204485	        0.0290774035	        0.1935568467	       -0.0463181869	       -1.5552079390	       -0.2299275057	       -1.0364923914	        0.7643518220	       -0.0616454797	       -0.1252837018	       -0.0852578793	
        2.2450000000	       11.7658089991	        8.2183101104	       -0.8437366300	       18.6439024759	      -72.4256755279	       11.5410859860	      -22.5779711233	      -10.8892624565	        0.6876297785	       -2.2539001850	        1.8958299043	       -0.3955215280	        0.0881597783	       31.0355983967	       -3.4458704352	        0.5259531806	       -9.8051929495	      -56.9424846991	       11.9326822985	       -0.0136062991	       -4.1713677794	       -4.6506061026	       16.1415489083	        2.0109376065	        0.9501178814	        1.1822594727	        0.6847012475	        0.0332904404	        0.1551969357	       -0.0076658680	       -1.9562726730	       -0.0201102528	       -0.7735857988	        0.1711046277	       -0.0433170427	       -0.1099180598	       -0.0306509385	
        2.2500000000	       14.3645155651	       26.6320944425	       -3.4668077505	       19.0471414095	     -108.4573549862	        0.4785362819	      -22.7468787849	      -10.7887955382	       -0.0766276974	       -1.9268310929	        1.9612726742	       -0.3896548716	        0.0935947905	       45.1698563611	        0.9499999428	        2.6151179589	       -1.5067095994	      -41.8129656851	        9.7762070405	        0.0266095489	       -5.9154028206	       -7.2600188692	       14.1428465715	        1.3429359225	        0.5071354149	        0.9173056094	        0.1568652101	        0.0380387625	        0.1191242463	        0.0321029850	       -2.3671244341	        0.1306923951	       -0.5340193998	       -0.4160071095	       -0.0257651725	       -0.0962613308	        0.0239895273	
        2.2550000000	       17.1144460707	       33.6915103684	       -5.6378414671	       12.8622649551	     -145.2533066402	       -6.0782247867	      -22.8747735676	       -9.8707474062	       -0.9951761181	       -1.5721576438	        2.0250738131	       -0.3818210225	        0.0996729831	       50.1202395517	        4.9244280688	        3.4011954903	        1.7324067972	      -29.9822739802	        8.0812309837	        0.0782562346	       -8.8320440104	      -10.2894444789	       12.0482638474	        0.6708236483	        0.1406073649	        0.6849531809	       -0.3415082857	        0.0426202302	        0.0856443723	        0.0710082311	       -2.7533126150	        0.2224546861	       -0.3181862770	       -0.9673464725	       -0.0094995886	       -0.0835650954	        0.0764975975	
        2.2600000000	       18.1851001581	       24.7808976098	       -7.2259059970	       -2.7351507830	     -170.6230568545	       -6.9719493562	      -23.2380696047	       -8.3849665140	       -1.9861434319	       -1.4156854576	        2.0795992835	       -0.3760582096	        0.1058941956	       41.3781096947	        7.3416828346	        2.6746267323	       -2.6509715492	      -22.2828572890	        6.7879164230	        0.1379993852	      -12.1507077865	      -13.8236778822	        9.7655765321	       -0.0050329066	       -0.1499253817	        0.4797334772	       -0.7680696868	        0.0460099222	        0.0549596326	        0.1051774719	       -3.0987950932	        0.2739352941	       -0.1131667906	       -1.4391723121	        0.0050046718	       -0.0695149410	        0.1233160707	
        2.2650000000	       18.4457855303	        4.9280853072	       -9.2833744032	      -23.8475343762	     -168.1567067720	       -2.1157406213	      -24.0417115507	       -6.4343975614	       -2.9318566084	       -1.7931791407	        2.1199007370	       -0.3800361565	        0.1119075533	       23.9647961187	        8.6463290301	        1.9622640446	      -12.4408392497	      -18.3312246750	        5.5930241006	        0.2021145114	      -15.0110686826	      -17.7875697653	        7.3240551037	       -0.6706168711	       -0.3796655003	        0.2932650038	       -1.0734855715	        0.0465547524	        0.0277197182	        0.1301457926	       -3.4006767173	        0.3311002194	        0.0994873200	       -1.7829955248	        0.0171420686	       -0.0516457884	        0.1602253185	
        2.2700000000	       17.8125435727	       -7.4833744345	      -12.4296015024	      -48.1037934997	     -128.9805304181	       -8.8946807851	      -25.3505427425	       -4.1676976577	       -3.7163776599	       -2.8357009914	        2.1465241822	       -0.3966331774	        0.1174435187	       18.1588175299	        9.1321638900	        2.1537197118	      -12.8072807226	      -10.0779967980	        3.0779007075	        0.2660731261	      -16.5252864844	      -21.8804066974	        4.8682193816	       -1.2846660087	       -0.5790859087	        0.1154354891	       -1.1860143695	        0.0445233977	        0.0044857149	        0.1392216542	       -3.6521806116	        0.4393866046	        0.3306947288	       -1.9459873638	        0.0264435250	       -0.0290003021	        0.1843057684	
        2.2750000000	       19.1995793261	      -17.6395099049	      -13.6411979565	      -61.4524827828	      -58.1523801114	      -15.6147303055	      -27.1060642396	       -1.6777333103	       -4.2401873682	       -4.6034349109	        2.1536519930	       -0.4291001590	        0.1219665085	       14.9513605437	       11.4300102158	        2.6745704861	      -11.8224874456	       -1.8561423311	        1.0843289447	        0.3236751305	      -16.5260399607	      -25.4566263126	        2.7128309551	       -1.7455498776	       -0.7783888766	       -0.0592797401	       -1.1582286337	        0.0390393409	       -0.0137652086	        0.1366047899	       -3.8097872135	        0.6318323711	        0.5747365626	       -1.9426350125	        0.0320542357	       -0.0028171728	        0.1882034844	
        2.2800000000	       25.4637079854	      -28.4280942831	      -13.8661534276	      -66.6845923761	       14.1810797894	      -17.7698388004	      -29.0951928208	        1.0259254087	       -4.5708397949	       -6.9200657845	        2.1548928635	       -0.4727158021	        0.1252918440	       11.5037574864	       18.8358656884	        3.2803450227	      -11.1063505381	        2.8996489997	        0.1773528809	        0.3716378151	      -15.4315263516	      -27.9910608699	        1.0916849536	       -2.0135506143	       -0.9902971534	       -0.2298450997	       -0.9656402263	        0.0309501984	       -0.0274858889	        0.1193808164	       -3.8894035213	        0.9179419616	        0.8146046590	       -1.8110654748	        0.0348711760	        0.0239785992	        0.1859365511	
        2.2850000000	       30.6556647637	      -41.5626814353	      -11.1700788063	      -56.3967058611	       75.6721213872	      -17.1618456513	      -30.8676265818	        4.1004964926	       -4.7269290262	       -9.3639667452	        2.1440383904	       -0.5166901640	        0.1269511000	        4.3694946329	       26.6159633242	        3.9057424868	      -14.2818360841	        3.1256368971	        0.2986366542	        0.4049915741	      -13.7388066316	      -28.6646822002	        0.3969838291	       -1.9691370909	       -1.2267848927	       -0.3883860695	       -0.6934871367	        0.0222586378	       -0.0361100774	        0.0948137762	       -3.8404160665	        1.2670022897	        1.0179631314	       -1.5967398419	        0.0343172974	        0.0465395537	        0.1718608913	
